<svg width="31" height="31" fill="currentColor" viewBox="0 0 24 24" xmlns="http://www.w3.org/2000/svg"><path d="M20.62 5.25h-1.116l-.003.001-.001.003V19.5a1.5 1.5 0 1 0 3 0V7.13a1.88 1.88 0 0 0-1.88-1.88Z"/><path d="M18 19.5V3.375A1.875 1.875 0 0 0 16.125 1.5H3.375A1.875 1.875 0 0 0 1.5 3.375v16.5A2.625 2.625 0 0 0 4.125 22.5h16.071a.053.053 0 0 0 .038-.016.054.054 0 0 0 .005-.07.053.053 0 0 0-.029-.02A3.004 3.004 0 0 1 18 19.5ZM4.5 6a.75.75 0 0 1 .75-.75h3A.75.75 0 0 1 9 6v3a.75.75 0 0 1-.75.75h-3A.75.75 0 0 1 4.5 9V6Zm9.75 12.75H5.271a.765.765 0 0 1-.77-.714.75.75 0 0 1 .749-.786h8.979c.404 0 .75.31.77.714a.752.752 0 0 1-.749.786Zm0-3H5.271a.765.765 0 0 1-.77-.714.75.75 0 0 1 .749-.786h8.979c.404 0 .75.31.77.714a.752.752 0 0 1-.749.786Zm0-3H5.271a.765.765 0 0 1-.77-.714.75.75 0 0 1 .749-.786h8.979c.404 0 .75.31.77.714a.752.752 0 0 1-.749.786Zm0-3h-2.979a.765.765 0 0 1-.77-.714.752.752 0 0 1 .749-.786h2.979c.404 0 .75.31.77.714a.752.752 0 0 1-.749.786Zm0-3h-2.979a.765.765 0 0 1-.77-.714.752.752 0 0 1 .749-.786h2.979c.404 0 .75.31.77.714a.752.752 0 0 1-.749.786Z"/></svg>